<?xml version="1.0" encoding="UTF-8" standalone="no"?><!DOCTYPE svg PUBLIC "-//W3C//DTD SVG 1.1//EN" "http://www.w3.org/Graphics/SVG/1.1/DTD/svg11.dtd"><svg width="100%" height="100%" viewBox="0 0 45 41" version="1.1" xmlns="http://www.w3.org/2000/svg" xmlns:xlink="http://www.w3.org/1999/xlink" xml:space="preserve" style="fill-rule:evenodd;clip-rule:evenodd;stroke-linejoin:round;stroke-miterlimit:1.41421;"><path d="M22.328,36.674c0.506,-0.012 0.78,-1.516 1.049,-1.557c0.836,-0.127 2.998,0.786 3.727,-0.289c0.558,-0.823 0.377,-4.039 -1.467,-3.618c-0.431,0.098 -1.27,1.708 -2.437,2.403c-0.281,0.164 -0.552,0.237 -0.826,0.25l-0.002,0l-0.031,0l-0.03,0l-0.002,0c-0.252,-0.022 -0.478,-0.08 -0.826,-0.25c-1.167,-0.695 -2.006,-2.305 -2.437,-2.403c-1.844,-0.421 -2.025,2.795 -1.467,3.618c0.729,1.075 2.891,0.162 3.726,0.289c0.27,0.041 0.491,1.569 1.023,1.557Zm1.657,3.937c-0.715,-0.01 -2.572,-0.01 -3.287,0c-1.487,0.021 -3.021,-0.877 -3.976,-1.301c-0.672,-0.299 -1.902,-0.811 -1.721,-3.701c0.065,-1.048 -0.24,-4.108 -1.194,-6.11c-0.811,-1.7 -2.444,-6.267 -2.459,-7.227c-0.019,-1.241 0.851,-1.132 2.665,-0.484c2.389,0.853 5.476,-1.256 4.366,-2.466c-0.845,-0.922 -2.886,-1.602 -4.252,-1.328c-1.117,0.223 -2.61,1.51 -3.153,1.857c-1.016,0.647 -3.302,1.252 -5.489,0.643c-2.949,-0.822 -5.417,-3.681 -5.484,-6.176c-0.054,-1.966 3.512,0.725 6.238,0.011c1.329,-0.348 2.692,-1.026 1.759,-2.699c-1.905,-3.42 -1.566,-9.725 1.639,-11.243c2.946,-1.396 -0.356,1.22 -0.194,4.12c0.118,2.11 1.02,3.306 2.264,3.651c1.669,0.461 2.724,-0.191 3.219,-0.467c1.336,-0.746 1.271,-1.596 2.78,-1.943c0.092,-0.021 0.186,-0.038 0.22,-0.041c0.217,-1.241 1.062,-1.999 1.722,-1.196c0.695,0.845 1.705,1.273 2.693,1.445c0.989,-0.172 1.999,-0.6 2.694,-1.445c0.66,-0.803 1.505,-0.045 1.722,1.196c0.034,0.003 0.128,0.02 0.22,0.041c1.509,0.347 1.443,1.197 2.78,1.943c0.495,0.276 1.55,0.928 3.219,0.467c1.244,-0.345 2.146,-1.541 2.264,-3.651c0.162,-2.9 -3.14,-5.516 -0.194,-4.12c3.205,1.518 3.544,7.823 1.639,11.243c-0.933,1.673 0.43,2.351 1.759,2.699c2.726,0.714 6.291,-1.977 6.238,-0.011c-0.067,2.495 -2.535,5.354 -5.484,6.176c-2.187,0.609 -4.473,0.004 -5.489,-0.643c-0.543,-0.347 -2.036,-1.634 -3.153,-1.857c-1.366,-0.274 -3.407,0.406 -4.252,1.328c-1.11,1.21 1.977,3.319 4.366,2.466c1.814,-0.648 2.684,-0.757 2.665,0.484c-0.015,0.96 -1.648,5.527 -2.459,7.227c-0.955,2.002 -1.259,5.062 -1.194,6.11c0.181,2.89 -1.049,3.402 -1.721,3.701c-0.955,0.424 -2.489,1.322 -3.976,1.301Z" style="fill:#333;"/></svg>